<?xml version="1.0" encoding="UTF-8"?>
<svg width="30px" height="30px" viewBox="0 0 30 30" version="1.1" xmlns="http://www.w3.org/2000/svg" xmlns:xlink="http://www.w3.org/1999/xlink">
    <!-- Generator: Sketch 61.2 (89653) - https://sketch.com -->
    <title>c</title>
    <desc>Created with Sketch.</desc>
    <g id="Page-1" stroke="none" stroke-width="1" fill="none" fill-rule="evenodd">
        <g id="mock" transform="translate(-1335.000000, -3505.000000)" fill="#22242A" fill-rule="nonzero">
            <path d="M1349.99996,3534.28124 C1358.02534,3534.28124 1364.53118,3527.77541 1364.53118,3519.75003 C1364.53118,3511.72465 1358.02534,3505.21881 1349.99996,3505.21881 C1341.97459,3505.21881 1335.46875,3511.72465 1335.46875,3519.75003 C1335.46875,3527.77541 1341.97459,3534.28124 1349.99996,3534.28124 Z M1346.99327,3527.44416 L1340.89953,3521.35042 C1340.53349,3520.98433 1340.53349,3520.39067 1340.89953,3520.02457 L1342.22538,3518.69878 C1342.59148,3518.33268 1343.18514,3518.33268 1343.55123,3518.69878 L1347.65622,3522.80382 L1356.44869,3514.01134 C1356.81485,3513.64519 1357.40851,3513.64519 1357.77455,3514.01134 L1359.1004,3515.33714 C1359.46644,3515.70323 1359.46644,3516.29689 1359.1004,3516.66299 L1348.31917,3527.44421 C1347.95302,3527.81025 1347.35942,3527.81025 1346.99327,3527.44416 Z" id="c"></path>
        </g>
    </g>
</svg>